inDegrees=no
num_controls=7
num_derivatives=13
num_iterations=77
num_multipliers=7
num_parameters=0
num_slacks=7
num_states=26
objective=0.426590
objective_accelerations=0.057700
objective_balance=0.001330
objective_effort=0.014511
objective_height=0.347207
objective_ligament=0.005841
solver_duration=1135.649322
status=Solve_Succeeded
success=true
DataType=double
version=3
OpenSimVersion=4.5
endheader
time	/jointset/ground_pelvis/pelvis_tilt/value	/jointset/ground_pelvis/pelvis_tx/value	/jointset/ground_pelvis/pelvis_ty/value	/jointset/hip_l/hip_flexion_l/value	/jointset/hip_l/hip_adduction_l/value	/jointset/hip_l/hip_rotation_l/value	/jointset/back/lumbar_extension/value	/jointset/patellofemoral_l/patellar_flexion_l/value	/jointset/knee_l/knee_flexion_l/value	/jointset/knee_l/knee_adduction_l/value	/jointset/knee_l/knee_rotation_l/value	/jointset/ankle_l/ankle_angle_l/value	/jointset/subtalar_l/subtalar_angle_l/value	/jointset/ground_pelvis/pelvis_tilt/speed	/jointset/ground_pelvis/pelvis_tx/speed	/jointset/ground_pelvis/pelvis_ty/speed	/jointset/hip_l/hip_flexion_l/speed	/jointset/hip_l/hip_adduction_l/speed	/jointset/hip_l/hip_rotation_l/speed	/jointset/back/lumbar_extension/speed	/jointset/patellofemoral_l/patellar_flexion_l/speed	/jointset/knee_l/knee_flexion_l/speed	/jointset/knee_l/knee_adduction_l/speed	/jointset/knee_l/knee_rotation_l/speed	/jointset/ankle_l/ankle_angle_l/speed	/jointset/subtalar_l/subtalar_angle_l/speed	/forceset/tau_hip_flexion_l	/forceset/tau_hip_adduction_l	/forceset/tau_hip_rotation_l	/forceset/tau_knee_flexion_l	/forceset/tau_ankle_angle_l	/forceset/tau_subtalar_angle_l	/forceset/tau_lumbar_extension	lambda_cid13_p0	lambda_cid13_p1	lambda_cid13_p2	lambda_cid13_p3	lambda_cid13_p4	lambda_cid13_p5	lambda_cid14_p0	/jointset/ground_pelvis/pelvis_tilt/accel	/jointset/ground_pelvis/pelvis_tx/accel	/jointset/ground_pelvis/pelvis_ty/accel	/jointset/hip_l/hip_flexion_l/accel	/jointset/hip_l/hip_adduction_l/accel	/jointset/hip_l/hip_rotation_l/accel	/jointset/back/lumbar_extension/accel	/jointset/patellofemoral_l/patellar_flexion_l/accel	/jointset/knee_l/knee_flexion_l/accel	/jointset/knee_l/knee_adduction_l/accel	/jointset/knee_l/knee_rotation_l/accel	/jointset/ankle_l/ankle_angle_l/accel	/jointset/subtalar_l/subtalar_angle_l/accel	gamma_cid13_p0	gamma_cid13_p1	gamma_cid13_p2	gamma_cid13_p3	gamma_cid13_p4	gamma_cid13_p5	gamma_cid14_p0
0	0.04801545449831623	0.1080887585012437	0.902863651468729	0.1266922784136757	-0.3700895601512433	-0.2250282168670338	-0.2144969558742783	0.2051545070141925	0.2051545070141877	-0.1744753487446354	-0.1602225150207797	0.09024313228550125	0.07897331020693346	0	0	0	0	0	0	0	0	0	0	0	0	0	0.1138164032885886	-0.05711771596402431	-0.009852548692023238	-0.2482765136482956	0.1862589485063069	-0.08883501224814611	-0.04705775919164017	28.95412256721365	34.49352138802251	-6.902052707585453	-20.26197734413713	-439.3512378073178	-47.89063891792102	-26.2491708856686	-3.283985381300541	-1.030773793872626	-0.8415800096978757	11.36900351631861	-0.08462382805436623	3.226672842865721	-3.525449744291667	10.68838282901013	10.68838282900954	2.444286620755681	-0.9025587117835681	3.627761218984641	0.9575113074810949	1.714859326003174e-09	5.634727823959267e-07	-7.452736911051783e-08	5.15585775509792e-08	-8.502206456737031e-09	2.155044448983751e-07	6.804423311179798e-08
0.01	0.04785899533716235	0.1080371995903672	0.9028228733451558	0.1272454017403967	-0.3700923943984066	-0.2248601167984977	-0.2146778742618758	0.2056755986686078	0.2056755986686014	-0.1743541729102234	-0.1602556893054666	0.09041970473754947	0.07902116851703993	-0.03116907799473838	-0.01034138171072489	-0.008129434487670483	0.1102410652887392	-0.0005227447095335892	0.03347013257359754	-0.03596902972518268	0.1037257473249159	0.1037257473249125	0.02418874749039341	-0.006568195764814978	0.03504822869000361	0.009543092245737668	0.109718760120264	-0.06697382255579293	-0.008658941499867246	-0.2416426432195879	0.1727337364044002	-0.07631629728949504	-0.0440777429763683	25.27009657879869	29.2704813200104	-5.576811926564056	-17.67760744077132	-440.0840561768655	-58.29183810944114	-26.24912278970184	-3.014955835757041	-1.040249978451303	-0.7946983346799693	10.79411710126642	-0.02955640343781051	3.384729353674256	-3.600432417497986	10.14076954184412	10.14076954184394	2.399291917737194	-0.5239758345240297	3.403430365785518	0.948342978519703	6.524293647857918e-10	8.705611791266412e-07	-1.177992272244951e-07	8.968665663899646e-08	-1.763258879296682e-07	3.012323952776773e-07	1.161740689124016e-07
0.02	0.04739452803062134	0.1078813409386275	0.9027015862434303	0.1288894275332273	-0.3700991474148738	-0.2243618062264099	-0.2152120435128972	0.2072191675677877	0.2072191675677878	-0.1739924849799891	-0.1603525507129531	0.0909387748108543	0.07916358470868386	-0.06160162907733635	-0.02085994817265019	-0.01610179563038955	0.2181804932220699	-0.0007837538604621937	0.06604210070989375	-0.07065017268501692	0.2044954489543067	0.2044954489543019	0.04810241916303088	-0.01273742455737253	0.06849952425110094	0.01891157630746118	0.1056211169519437	-0.07682992914757483	-0.007465334307638011	-0.235008772790889	0.1592085243024915	-0.06379758233085986	-0.04109772676108834	21.63409232531899	24.05233058807265	-4.267542894854716	-15.14623857388507	-439.9560118533842	-68.50802307898159	-26.24866374041559	-3.136679998872403	-1.066210744112772	-0.8101653407075871	10.90867604523695	-0.03227671633332897	3.047039955405442	-3.267872391221983	10.09717368990516	10.09717368990492	2.389271457204581	-0.8227653173320889	3.308374593203327	0.9225896706782916	-4.100005964315902e-10	1.177649575857356e-06	-1.610710853384723e-07	1.278147357270137e-07	-3.441495694025994e-07	3.869603456569794e-07	1.643039047130051e-07
0.03	0.04662915916983764	0.1076200851396136	0.9025010123015784	0.1316011293330064	-0.3701077110065791	-0.223543359346339	-0.2160855560467482	0.2097566263808333	0.2097566263808255	-0.1733939857277917	-0.1605104271092841	0.09178547646294398	0.07939863995325226	-0.09132822285391407	-0.03135148502362442	-0.02401412883043099	0.3236664299295651	-0.0009445610818234699	0.09752879190165012	-0.1037835117369366	0.302523344442628	0.3025233444426243	0.07141253054970616	-0.0187477993786309	0.1006622930485245	0.02803522046450063	0.1019658778886841	-0.07160424681336709	-0.006607635361426754	-0.2308013392757017	0.1540806322308535	-0.06597538369698866	-0.03832328020924643	19.86656492384319	25.18934179965096	-4.313697551656397	-13.97795339833103	-439.7835439417458	-65.4022217783433	-26.24736761872455	-2.869051012468248	-1.034640447798932	-0.7820072311911387	10.29454024725875	-0.01047369660593551	3.181770809160633	-3.295741309954043	9.584619041408693	9.58461904140897	2.274328659848564	-0.4767188455659749	3.143487304264667	0.8974471835127269	-6.408655644583863e-09	1.299698637045116e-06	-1.395565015581473e-07	1.478329231149265e-07	-4.752806663654152e-07	3.815960670467777e-07	1.816092389401042e-07
0.04	0.045570843982205	0.1072551109136479	0.9022212670434188	0.135352888052614	-0.3701183808648147	-0.2224135881327308	-0.2172823373006717	0.2132601684613776	0.2132601684613782	-0.1725678958256367	-0.1607257163100503	0.09294845765925912	0.0797229707184504	-0.1201908944472081	-0.04160363356301624	-0.03193605889189579	0.4261918771871723	-0.001205007165920231	0.1283069674174026	-0.1353039166999343	0.3977121024554769	0.3977121024554749	0.09362054915436559	-0.02421998544161996	0.131755433096063	0.03676668043337945	0.0983106388254827	-0.06637856447917098	-0.005749936415129037	-0.2265939057604874	0.1489527401592272	-0.06815318506312754	-0.03554883365736655	18.14246609449034	26.33476712809038	-4.379492936351677	-12.85069020933784	-438.8150474130023	-62.11267387317641	-26.24444564660976	-2.963895562215629	-1.018333081796357	-0.812084712992255	10.31657815525939	-0.05220448888038506	2.905336820204657	-2.945285573437579	9.529346194810733	9.52934619481058	2.168852900801494	-0.7151275656782305	3.094448843226251	0.8441528330461913	-1.250908852958016e-08	1.417932454201062e-06	-1.167061148521665e-07	1.674777106739712e-07	-6.056552151940018e-07	3.743535981481326e-07	1.98279016433729e-07
0.05	0.04422737675082683	0.1067886821718735	0.9018620123543742	0.1401164564566791	-0.3701318237119429	-0.2209815047053953	-0.2187860100135337	0.2177019961284356	0.2177019961284333	-0.1715245460331494	-0.1609947445293181	0.09441695292991473	0.08013304202807375	-0.1483868302429703	-0.05165308803442877	-0.03993091568409299	0.5260643920116996	-0.001459689290983044	0.1579580735090394	-0.1651953182374664	0.4901526902851051	0.4901526902851027	0.1149202512840525	-0.02948182481728569	0.1617380850026318	0.04522082569788215	0.09463565591765874	-0.06459812109854698	-0.004776326921476047	-0.2228912573208183	0.1430552402298326	-0.06683076903792989	-0.0328385371099164	16.35205588280012	25.95044451911073	-4.177170609375907	-11.69194086928683	-438.1762047805341	-62.04730787533263	-26.23902901889907	-2.730068252679251	-0.9938639620892745	-0.7957138619580431	9.753981592906063	-0.008712509848087606	2.972311366886646	-2.975771298652415	9.026264185996009	9.026264185996059	2.091384375250064	-0.4161877867519702	2.919388242532293	0.8418223309265012	-1.411001965478124e-08	1.411734725039404e-06	-1.53840685854972e-07	1.743858084365457e-07	-6.654753262594428e-07	4.031641267572345e-07	2.043998792896415e-07
0.06	0.04260542502860646	0.1062226364189296	0.9014223035574832	0.1458650286983619	-0.3701471358674292	-0.2192574474444937	-0.2205815375127181	0.2230531994955781	0.2230531994955778	-0.170272028118119	-0.1613132862749977	0.09617911769526893	0.08062681018189707	-0.1758877926156404	-0.06152703579690728	-0.04802688046120453	0.6231926447104893	-0.001578868837197398	0.1867017341304142	-0.1936748739646487	0.5795872424730214	0.579587242473021	0.1354541736616522	-0.03412269072260035	0.1904893320356066	0.05350604927335389	0.09096067300985869	-0.06281767771793571	-0.003802717427779486	-0.2191886088811461	0.1371577403004377	-0.06550835301274659	-0.03012824056244312	14.60120835053484	25.57186771400941	-3.990241888680127	-10.5679632129442	-436.8202392842412	-61.81686248444148	-26.22987916318332	-2.824900877597156	-0.9832317400096188	-0.8323063099751133	9.767725730111888	-0.02510397311065427	2.723847726152247	-2.662916411367619	8.928139066468402	8.928139066468702	2.015696950384144	-0.5909328716080195	2.8481678685074	0.8103684952400243	-1.552149807430674e-08	1.400297772874899e-06	-1.935009392876212e-07	1.807576245234794e-07	-7.223247241559091e-07	4.334926763140311e-07	2.10076577318703e-07
0.07000000000000001	0.0407113976893322	0.1055587409120642	0.9009008857560539	0.1525723232016256	-0.3701629915780476	-0.2172523308742116	-0.2226541151247781	0.2292849890553279	0.2292849890553221	-0.168817799159626	-0.1616772049015753	0.09822303843690491	0.08120272219419158	-0.2027926417588898	-0.0712187882219687	-0.05628745011999527	0.7178026430130401	-0.001573029648804386	0.2141679479619081	-0.2206015912237526	0.6662850440426802	0.6662850440426743	0.1552447959765568	-0.03855397608195087	0.2180981993761073	0.06164946697305652	0.08690066629965967	-0.06029647807358764	-0.002728680265581807	-0.2155373730445994	0.1313036146548061	-0.06446243713858096	-0.02717413266701839	12.83688261926984	25.32831389182168	-3.839206179534727	-9.465326469901553	-435.6792542520283	-61.2337805164123	-26.21574067788271	-2.604501392591872	-0.9571191620449081	-0.8276929921493037	9.238102774503536	0.01614286274929138	2.735035923620913	-2.671690799622159	8.467714803048613	8.467714803047576	1.938936841871107	-0.3532295511864224	2.687797276031034	0.8120991994472241	-1.439948287348457e-08	1.308823868961415e-06	-2.471592597450206e-07	1.765491944101101e-07	-7.264907767027821e-07	4.620334889964297e-07	2.060513381267779e-07
